<svg xmlns="http://www.w3.org/2000/svg" viewBox="0 0 434.89 139.03"><defs><style>.cls-1{fill:#fff;}</style></defs><g id="Layer_2" data-name="Layer 2"><g id="Layer_1-2" data-name="Layer 1"><path class="cls-1" d="M102.53,95.91c13-17,20.7-34.12,23.42-52.3,1.57-10.52.88-19.08-2.18-26.93-2.83-7.27-8-12.65-14.46-15.14s-14-1.94-21,1.58C81.84,6.38,76.55,11.5,72.16,18.78c-6,9.88-9.06,21.32-9.72,36-.8,17.62,2.39,35.64,9.48,53.55l.19.49,0,0c-7.19,4.6-13.49,7.26-19.83,8.39-12.32,2.2-22.67-.63-30.76-8.41a30.79,30.79,0,0,1-9.32-24.69c.67-10,5.61-19.29,13.19-24.84A19.67,19.67,0,0,1,30,56.78a11.46,11.46,0,0,1,9.57.3A11.62,11.62,0,0,1,45.2,65c1.26,5.46.35,9.71-3.23,15.15l-.48.73a37.85,37.85,0,0,1-4.3,5.9l-1.1,1.32c-.49.58,0,1.82,1.43,1.82h7a3,3,0,0,0,2.18-1.09C55.12,79,57.72,68.68,55,58.12c-2-7.72-8.51-13-17.33-14.06-7-.86-13.6,1.19-20.27,6.27C3.19,61.13-3.4,81.54,1.73,98.85c5.19,17.48,20.6,29.61,39.26,30.9,12.19.84,24-2.48,36.16-10.14h0c1.25,2.06,3,5.17,4.79,8.19,2.36,4.1,4.39,7.68,5.71,9.73a2.64,2.64,0,0,0,1.25,1.07,5,5,0,0,0,1.82.38H96.8c.74,0,1.62-.38.91-1.63l-.7-1.23c-1-1.79-2.61-4.39-4.4-7.47-3-5.24-6.5-11.18-8.21-14.22h0l.28-.25A103.57,103.57,0,0,0,102.53,95.91ZM80,102.82c-6.69-20.58-8.51-39.32-5.59-57.25,1.45-8.83,4.08-16.07,8-22.14C85.62,18.5,89.26,15.09,93.51,13A17,17,0,0,1,101,11.1a12.4,12.4,0,0,1,4.69.91c3.6,1.48,6.33,4.64,7.9,9.15,2.08,6,2.44,12.6,1.14,20.9C112.51,56,106.89,69.38,97.5,83A101.79,101.79,0,0,1,80,102.82Z"/><path class="cls-1" d="M432.37,90.7A2.39,2.39,0,0,0,430.3,92c-5.06,8.75-9.48,12.2-13.08,14a35.26,35.26,0,0,1-7.58,2.63.14.14,0,0,1-.15-.2C414.6,97,422.33,79.76,425.21,73.36a1.77,1.77,0,0,0-1.58-2.51h-5.94a4.22,4.22,0,0,0-3.84,2.47c-3.21,7.18-5.9,13.16-8.17,18.2-.6,1.33-2.85,7.72-9,12.1a9.25,9.25,0,0,1-5,2c-1.68,0-2.78-1-2.78-3a9.44,9.44,0,0,1,.73-3.3c2-5.18,4.13-10,11.34-26a1.75,1.75,0,0,0-1.62-2.45h-5.95a4.22,4.22,0,0,0-3.84,2.51c-4.13,9.2-6.48,14.51-8.21,18.71a50.71,50.71,0,0,1-6.38,8.82c-2.85,3-6.21,4.72-8.57,4.72a2.71,2.71,0,0,1-3-3,9.35,9.35,0,0,1,.74-3.3c.82-2.14,1.66-4.21,2.88-7,1.15-2.67,16.9-37.66,17.42-38.81a1.77,1.77,0,0,0-1.6-2.5h-5.94A4.27,4.27,0,0,0,373,53.52c-.33.72-14,31.49-14.66,33.09q-1.19,2.73-2.18,5.06c-2.88,5-5.78,7.63-9.63,7.63a10.79,10.79,0,0,1-3.42-.62.25.25,0,0,1-.12-.38,28.1,28.1,0,0,0,3.48-12.9c0-10-6.35-15.07-14.14-15.07-10.75,0-19.22,7.77-23.35,16.76a33.57,33.57,0,0,0-1.74,4.75l-.12.17c-2.32,4-5.13,7.32-9.48,7.32a10.94,10.94,0,0,1-4.46-1,.31.31,0,0,1-.15-.42,32.59,32.59,0,0,0,2-4.45,29.44,29.44,0,0,0,1.82-9.67,18.19,18.19,0,0,0-.55-4.56c-1.34-5.25-5.06-8.45-10.87-8.45-3.48,0-6.73,1.72-9.56,4a.09.09,0,0,1-.13-.1c.21-.47.42-.93.62-1.4a1.77,1.77,0,0,0-1.6-2.51H268.9A4.26,4.26,0,0,0,265,73.4l-8.21,18.54c-2.83,4.78-5.69,7.36-9.47,7.36a10.83,10.83,0,0,1-3.42-.62.27.27,0,0,1-.12-.38,28,28,0,0,0,3.48-12.9c0-10-6.35-15.07-14.14-15.07-10.75,0-19.22,7.77-23.34,16.76a31,31,0,0,0-1.74,4.76,2.43,2.43,0,0,0-.2.25c-4,6.89-9.07,11-14.28,12.66a23.5,23.5,0,0,1-6.94,1.18c-6.83,0-10.33-4.22-10.14-9.67,0-.18.22-.26.4-.28,8.08-.59,16.76-2.11,22.58-8.2A11.73,11.73,0,0,0,203,79.73c0-5.17-4.14-9.68-11.15-9.68-9.13,0-17.62,7.32-22.17,15.46A27.92,27.92,0,0,0,167,92.29c-2.4,4.09-6.5,10-10.86,12.38a6.66,6.66,0,0,1-3.11.86c-2,0-3.42-1.15-3.42-2.81a3.52,3.52,0,0,1,.23-1.18c1.86-5,3.27-8.39,7.7-18.28,2.34-5.24,12.2-27.2,13.38-29.82a1.83,1.83,0,0,0,.16-.74A1.77,1.77,0,0,0,169.27,51l-6,0a3.78,3.78,0,0,0-3.74,2.2c-2.44,5.51-8.73,19.64-9.71,21.83-.15.33-.21.65-.41.35s-.49-.65-.74-1c-2.35-2.81-4.92-3.87-9.35-3.87-8.33,0-19.28,7.36-23.83,20.07a29.69,29.69,0,0,0-1.81,9.67,18.32,18.32,0,0,0,.54,4.57c1.34,5.25,5.07,8.45,10.89,8.45,5.22,0,9.54-2.54,13.15-6.16a.89.89,0,0,1,1.4.36c1.6,3.17,5.55,5.81,10.77,5.81h0c7.28,0,12.36-4.56,16.53-10.48,1.85,6.33,7.41,10.87,16.64,10.87h0a30,30,0,0,0,23.84-11.1c1.25,6.48,6,11.36,15.15,11.36h0c5.38,0,11.35-2.52,16.38-8.47a.53.53,0,0,1,.6-.11,16.65,16.65,0,0,0,5.93,1.13,14.71,14.71,0,0,0,5.34-1c-4.71,10.64-10.65,24.51-13.52,31a1.89,1.89,0,0,0-.16.76,1.77,1.77,0,0,0,1.75,1.79h5.88a4.24,4.24,0,0,0,3.84-2.53c2.58-5.83,7.9-18.34,11.95-27.49.07-.13.25-.19.34-.07,2,2.57,4.89,4.6,10.36,4.6s12.33-3.32,17.54-9.33a.44.44,0,0,1,.53-.14,16.18,16.18,0,0,0,7.34,1.61,15,15,0,0,0,9.86-3.63c1.08,6.75,5.79,11.9,15.25,11.9h0c5.38,0,11.35-2.52,16.38-8.47a.52.52,0,0,1,.59-.11,16.73,16.73,0,0,0,5.93,1.13,14.93,14.93,0,0,0,7.65-2.12c.4,5.2,4.63,9,11.8,9h0a17.16,17.16,0,0,0,8.63-2.23,22.92,22.92,0,0,0,5.45-4.6c1.18,3.77,4.69,6.58,10.35,6.81.25,0,.29.24,0,.32-6.35,1.86-14.29,8.77-15.87,14.49a9.34,9.34,0,0,0-.35,2.48,7.78,7.78,0,0,0,2.28,5.6,10.86,10.86,0,0,0,7.79,2.73h0A20.05,20.05,0,0,0,396,133.49c3.15-3.15,6.35-10.39,8.52-15.32a.71.71,0,0,1,.51-.33,58.87,58.87,0,0,0,15.18-5.93c6.57-3.73,10-8.72,13.74-15.24a6.16,6.16,0,0,0,.93-3A2.69,2.69,0,0,0,432.37,90.7Zm-254.19-.86a20.18,20.18,0,0,1,12.14-11.17,10.28,10.28,0,0,1,2.84-.49c1.82,0,2.55.87,2.55,2a7,7,0,0,1-2.56,4.58C189.57,88,183,89.41,178.39,90.07,178.25,90.09,178.12,90,178.18,89.84Zm-35.84,1.87c-3.88,8.14-12.1,13.15-15.64,13.15h0c-2.55,0-3.41-1.83-3.41-4.22a20.87,20.87,0,0,1,1.47-6.8,26,26,0,0,1,9.65-12.48,13.28,13.28,0,0,1,7-2.46c2.48,0,4.25,1.21,4.25,3.68S143.36,89.58,142.34,91.71Zm95.39-7.66c-3.09,1.32-5.14,4.89-5.14,9.07a13.88,13.88,0,0,0,1.11,5.36.61.61,0,0,1-.08.61c-3,4.54-6.63,6.53-9.66,6.53h0c-4.44,0-6.31-3.31-6.31-7.63a22.53,22.53,0,0,1,2.19-9.07c3.38-7.33,8.44-10.67,12.41-10.67,2.95,0,5.29,1.86,5.86,5.3C238.15,83.78,237.94,84,237.73,84.05Zm49.54-.48c-3.24,1.16-5,4.77-5,8.75a13.63,13.63,0,0,0,.73,4.37.54.54,0,0,1-.07.48c-3.27,4.5-8,8.09-13.73,8.09h0c-2.29,0-4.11-1-4.11-3.83a16.71,16.71,0,0,1,1.7-6.29c3.29-7.48,10.79-15.86,16.91-15.86,2.31,0,3.55,1.53,3.88,3.84A.42.42,0,0,1,287.27,83.57Zm49.66.48c-3.08,1.32-5.14,4.89-5.14,9.07a13.72,13.72,0,0,0,1.12,5.36.64.64,0,0,1-.08.61c-3,4.54-6.63,6.53-9.66,6.53h0c-4.44,0-6.31-3.31-6.31-7.63a22.37,22.37,0,0,1,2.19-9.07c3.38-7.33,8.44-10.67,12.4-10.67,3,0,5.3,1.86,5.87,5.3C337.36,83.78,337.15,84,336.93,84.05Zm55.33,36.52c-1.75,3.88-6,12.66-11.07,12.66h0c-1.95,0-3.15-1.16-3.15-2.69,0-1.19,1.11-3,2.66-4.38A26.35,26.35,0,0,1,392,120.34C392.15,120.31,392.33,120.43,392.26,120.57Z"/></g></g></svg>